<mxfile host="app.diagrams.net" agent="Mozilla/5.0 (X11; Linux x86_64; rv:130.0) Gecko/20100101 Firefox/130.0" version="24.7.16">
  <diagram name="Page-1" id="AjCuswHZk_rQ_HJoOy0P">
    <mxGraphModel dx="2349" dy="1856" grid="1" gridSize="10" guides="1" tooltips="1" connect="1" arrows="1" fold="1" page="1" pageScale="1" pageWidth="850" pageHeight="1100" math="0" shadow="0">
      <root>
        <mxCell id="0" />
        <mxCell id="1" parent="0" />
        <mxCell id="LK1dqfED8tSf46WjywbH-8" value="" style="rounded=1;whiteSpace=wrap;html=1;" vertex="1" parent="1">
          <mxGeometry x="-55.5" width="920" height="510" as="geometry" />
        </mxCell>
        <mxCell id="LK1dqfED8tSf46WjywbH-2" value="" style="outlineConnect=0;dashed=0;verticalLabelPosition=bottom;verticalAlign=top;align=center;html=1;shape=mxgraph.aws3.traditional_server;fillColor=#dae8fc;strokeColor=#6c8ebf;" vertex="1" parent="1">
          <mxGeometry x="377" y="187" width="46.5" height="63" as="geometry" />
        </mxCell>
        <mxCell id="LK1dqfED8tSf46WjywbH-30" style="edgeStyle=orthogonalEdgeStyle;rounded=0;orthogonalLoop=1;jettySize=auto;html=1;startArrow=classic;startFill=1;fillColor=#fff2cc;strokeColor=#d6b656;dashed=1;dashPattern=8 8;" edge="1" parent="1" source="LK1dqfED8tSf46WjywbH-3" target="LK1dqfED8tSf46WjywbH-2">
          <mxGeometry relative="1" as="geometry" />
        </mxCell>
        <mxCell id="LK1dqfED8tSf46WjywbH-36" value="Manage Agents" style="edgeLabel;html=1;align=center;verticalAlign=middle;resizable=0;points=[];" vertex="1" connectable="0" parent="LK1dqfED8tSf46WjywbH-30">
          <mxGeometry x="-0.0222" relative="1" as="geometry">
            <mxPoint as="offset" />
          </mxGeometry>
        </mxCell>
        <mxCell id="LK1dqfED8tSf46WjywbH-3" value="" style="outlineConnect=0;dashed=0;verticalLabelPosition=bottom;verticalAlign=top;align=center;html=1;shape=mxgraph.aws3.traditional_server;fillColor=#d5e8d4;strokeColor=#82b366;" vertex="1" parent="1">
          <mxGeometry x="377" y="340" width="46.5" height="63" as="geometry" />
        </mxCell>
        <mxCell id="LK1dqfED8tSf46WjywbH-4" value="" style="outlineConnect=0;dashed=0;verticalLabelPosition=bottom;verticalAlign=top;align=center;html=1;shape=mxgraph.aws3.traditional_server;fillColor=#7D7C7C;gradientColor=none;" vertex="1" parent="1">
          <mxGeometry x="571.75" y="340" width="46.5" height="63" as="geometry" />
        </mxCell>
        <mxCell id="LK1dqfED8tSf46WjywbH-5" value="" style="outlineConnect=0;dashed=0;verticalLabelPosition=bottom;verticalAlign=top;align=center;html=1;shape=mxgraph.aws3.traditional_server;fillColor=#CC0000;strokeColor=#CC0000;" vertex="1" parent="1">
          <mxGeometry x="990" y="-90" width="46.5" height="63" as="geometry" />
        </mxCell>
        <mxCell id="LK1dqfED8tSf46WjywbH-34" style="edgeStyle=orthogonalEdgeStyle;rounded=0;orthogonalLoop=1;jettySize=auto;html=1;strokeColor=#f5c211;dashed=1;dashPattern=8 8;startArrow=classic;startFill=1;" edge="1" parent="1" source="LK1dqfED8tSf46WjywbH-6" target="LK1dqfED8tSf46WjywbH-2">
          <mxGeometry relative="1" as="geometry" />
        </mxCell>
        <mxCell id="LK1dqfED8tSf46WjywbH-35" value="&lt;div&gt;Alerts/Tickets&lt;/div&gt;" style="edgeLabel;html=1;align=center;verticalAlign=middle;resizable=0;points=[];" vertex="1" connectable="0" parent="LK1dqfED8tSf46WjywbH-34">
          <mxGeometry x="-0.1265" y="-1" relative="1" as="geometry">
            <mxPoint as="offset" />
          </mxGeometry>
        </mxCell>
        <mxCell id="LK1dqfED8tSf46WjywbH-6" value="" style="outlineConnect=0;dashed=0;verticalLabelPosition=bottom;verticalAlign=top;align=center;html=1;shape=mxgraph.aws3.traditional_server;fillColor=#e1d5e7;strokeColor=#9673a6;" vertex="1" parent="1">
          <mxGeometry x="571.75" y="187" width="46.5" height="63" as="geometry" />
        </mxCell>
        <mxCell id="LK1dqfED8tSf46WjywbH-10" value="&lt;div&gt;VULTR&lt;/div&gt;" style="text;strokeColor=none;align=center;fillColor=none;html=1;verticalAlign=middle;whiteSpace=wrap;rounded=0;" vertex="1" parent="1">
          <mxGeometry x="-12.990000000000002" y="30" width="60" height="30" as="geometry" />
        </mxCell>
        <mxCell id="LK1dqfED8tSf46WjywbH-11" value="&lt;div&gt;Elasticsearch + Kibana&lt;/div&gt;" style="text;strokeColor=none;align=center;fillColor=none;html=1;verticalAlign=middle;whiteSpace=wrap;rounded=0;" vertex="1" parent="1">
          <mxGeometry x="300" y="203.5" width="60" height="30" as="geometry" />
        </mxCell>
        <mxCell id="LK1dqfED8tSf46WjywbH-12" value="&lt;div&gt;Windows Server (RDP Enabled)&lt;/div&gt;" style="text;strokeColor=none;align=center;fillColor=none;html=1;verticalAlign=middle;whiteSpace=wrap;rounded=0;" vertex="1" parent="1">
          <mxGeometry x="179.87" y="427" width="86.75" height="30" as="geometry" />
        </mxCell>
        <mxCell id="LK1dqfED8tSf46WjywbH-13" value="Ubuntu Server w/ SSH enabled" style="text;strokeColor=none;align=center;fillColor=none;html=1;verticalAlign=middle;whiteSpace=wrap;rounded=0;" vertex="1" parent="1">
          <mxGeometry x="550" y="420" width="90" height="30" as="geometry" />
        </mxCell>
        <mxCell id="LK1dqfED8tSf46WjywbH-15" value="&lt;div&gt;Fleet Server&lt;/div&gt;" style="text;strokeColor=none;align=center;fillColor=none;html=1;verticalAlign=middle;whiteSpace=wrap;rounded=0;" vertex="1" parent="1">
          <mxGeometry x="370.25" y="420" width="60" height="30" as="geometry" />
        </mxCell>
        <mxCell id="LK1dqfED8tSf46WjywbH-16" value="&lt;div&gt;os Ticket Server&lt;/div&gt;" style="text;strokeColor=none;align=center;fillColor=none;html=1;verticalAlign=middle;whiteSpace=wrap;rounded=0;" vertex="1" parent="1">
          <mxGeometry x="627.75" y="203.5" width="60" height="30" as="geometry" />
        </mxCell>
        <mxCell id="LK1dqfED8tSf46WjywbH-17" value="&lt;div&gt;C2C Server&lt;/div&gt;&lt;div&gt;(Mythic)&lt;/div&gt;" style="text;strokeColor=none;align=center;fillColor=none;html=1;verticalAlign=middle;whiteSpace=wrap;rounded=0;" vertex="1" parent="1">
          <mxGeometry x="983.25" y="-20" width="60" height="30" as="geometry" />
        </mxCell>
        <mxCell id="LK1dqfED8tSf46WjywbH-22" value="&lt;div&gt;VPC&lt;/div&gt;" style="sketch=0;outlineConnect=0;gradientColor=none;html=1;whiteSpace=wrap;fontSize=12;fontStyle=0;shape=mxgraph.aws4.group;grIcon=mxgraph.aws4.group_vpc;strokeColor=#879196;fillColor=none;verticalAlign=top;align=left;spacingLeft=30;fontColor=#879196;dashed=0;" vertex="1" parent="1">
          <mxGeometry x="-12.99" y="140" width="835" height="350" as="geometry" />
        </mxCell>
        <mxCell id="LK1dqfED8tSf46WjywbH-27" value="" style="outlineConnect=0;dashed=0;verticalLabelPosition=bottom;verticalAlign=top;align=center;html=1;shape=mxgraph.aws3.traditional_server;fillColor=#7D7C7C;gradientColor=none;" vertex="1" parent="1">
          <mxGeometry x="199.99" y="340" width="46.5" height="63" as="geometry" />
        </mxCell>
        <mxCell id="LK1dqfED8tSf46WjywbH-37" style="rounded=0;orthogonalLoop=1;jettySize=auto;html=1;entryX=0;entryY=0.5;entryDx=0;entryDy=0;entryPerimeter=0;dashed=1;dashPattern=12 12;" edge="1" parent="1" source="LK1dqfED8tSf46WjywbH-27" target="LK1dqfED8tSf46WjywbH-2">
          <mxGeometry relative="1" as="geometry" />
        </mxCell>
        <mxCell id="LK1dqfED8tSf46WjywbH-39" value="&lt;div&gt;Forward Logs&lt;/div&gt;&lt;div&gt;&amp;nbsp;Via Agent&lt;/div&gt;" style="edgeLabel;html=1;align=center;verticalAlign=middle;resizable=0;points=[];" vertex="1" connectable="0" parent="LK1dqfED8tSf46WjywbH-37">
          <mxGeometry x="-0.2098" y="1" relative="1" as="geometry">
            <mxPoint x="-1" as="offset" />
          </mxGeometry>
        </mxCell>
        <mxCell id="LK1dqfED8tSf46WjywbH-38" style="rounded=0;orthogonalLoop=1;jettySize=auto;html=1;entryX=1;entryY=0.5;entryDx=0;entryDy=0;entryPerimeter=0;dashed=1;dashPattern=12 12;" edge="1" parent="1" source="LK1dqfED8tSf46WjywbH-4" target="LK1dqfED8tSf46WjywbH-2">
          <mxGeometry relative="1" as="geometry" />
        </mxCell>
        <mxCell id="LK1dqfED8tSf46WjywbH-40" value="&lt;div&gt;Forward Logs&lt;/div&gt;&lt;div&gt;Via Agent&lt;/div&gt;" style="edgeLabel;html=1;align=center;verticalAlign=middle;resizable=0;points=[];" vertex="1" connectable="0" parent="LK1dqfED8tSf46WjywbH-38">
          <mxGeometry x="-0.3137" y="-3" relative="1" as="geometry">
            <mxPoint as="offset" />
          </mxGeometry>
        </mxCell>
        <mxCell id="LK1dqfED8tSf46WjywbH-41" value="&lt;div align=&quot;left&quot;&gt;Private Network: 172.31.0.0/24&lt;/div&gt;&lt;div align=&quot;left&quot;&gt;IP Range: 172.31.0.1 - 172.31.0.254&lt;/div&gt;&lt;div align=&quot;left&quot;&gt;Subnet Mask: 255.255.255.0&lt;br&gt;&lt;/div&gt;" style="text;strokeColor=none;align=center;fillColor=none;html=1;verticalAlign=middle;whiteSpace=wrap;rounded=0;" vertex="1" parent="1">
          <mxGeometry x="-40.129999999999995" y="210" width="286.62" height="30" as="geometry" />
        </mxCell>
        <mxCell id="LK1dqfED8tSf46WjywbH-47" style="rounded=0;orthogonalLoop=1;jettySize=auto;html=1;" edge="1" parent="1" source="LK1dqfED8tSf46WjywbH-44" target="LK1dqfED8tSf46WjywbH-22">
          <mxGeometry relative="1" as="geometry" />
        </mxCell>
        <mxCell id="LK1dqfED8tSf46WjywbH-44" value="" style="outlineConnect=0;dashed=0;verticalLabelPosition=bottom;verticalAlign=top;align=center;html=1;shape=mxgraph.aws3.internet_gateway;fillColor=#F58534;gradientColor=none;" vertex="1" parent="1">
          <mxGeometry x="372.38" y="30" width="64.25" height="62" as="geometry" />
        </mxCell>
        <mxCell id="LK1dqfED8tSf46WjywbH-46" style="edgeStyle=orthogonalEdgeStyle;rounded=0;orthogonalLoop=1;jettySize=auto;html=1;" edge="1" parent="1" source="LK1dqfED8tSf46WjywbH-45" target="LK1dqfED8tSf46WjywbH-44">
          <mxGeometry relative="1" as="geometry" />
        </mxCell>
        <mxCell id="LK1dqfED8tSf46WjywbH-45" value="Internet" style="ellipse;shape=cloud;whiteSpace=wrap;html=1;" vertex="1" parent="1">
          <mxGeometry x="344.5" y="-200" width="120" height="80" as="geometry" />
        </mxCell>
        <mxCell id="LK1dqfED8tSf46WjywbH-50" style="edgeStyle=orthogonalEdgeStyle;rounded=0;orthogonalLoop=1;jettySize=auto;html=1;" edge="1" parent="1" source="LK1dqfED8tSf46WjywbH-49" target="LK1dqfED8tSf46WjywbH-45">
          <mxGeometry relative="1" as="geometry" />
        </mxCell>
        <mxCell id="LK1dqfED8tSf46WjywbH-53" value="Connect to Elasticsearch/Kibana via Web GUI" style="edgeLabel;html=1;align=center;verticalAlign=middle;resizable=0;points=[];" vertex="1" connectable="0" parent="LK1dqfED8tSf46WjywbH-50">
          <mxGeometry x="0.0198" y="-1" relative="1" as="geometry">
            <mxPoint as="offset" />
          </mxGeometry>
        </mxCell>
        <mxCell id="LK1dqfED8tSf46WjywbH-49" value="&lt;div&gt;SOC Analyst&lt;/div&gt;&lt;div&gt;&amp;nbsp;Laptop&lt;/div&gt;" style="verticalLabelPosition=bottom;html=1;verticalAlign=top;align=center;strokeColor=none;fillColor=#00BEF2;shape=mxgraph.azure.laptop;pointerEvents=1;" vertex="1" parent="1">
          <mxGeometry x="-130.13" y="-187.5" width="90" height="55" as="geometry" />
        </mxCell>
        <mxCell id="LK1dqfED8tSf46WjywbH-52" value="" style="edgeStyle=orthogonalEdgeStyle;rounded=0;orthogonalLoop=1;jettySize=auto;html=1;" edge="1" parent="1" source="LK1dqfED8tSf46WjywbH-51" target="LK1dqfED8tSf46WjywbH-5">
          <mxGeometry relative="1" as="geometry" />
        </mxCell>
        <mxCell id="LK1dqfED8tSf46WjywbH-54" style="edgeStyle=orthogonalEdgeStyle;rounded=0;orthogonalLoop=1;jettySize=auto;html=1;" edge="1" parent="1" source="LK1dqfED8tSf46WjywbH-51" target="LK1dqfED8tSf46WjywbH-45">
          <mxGeometry relative="1" as="geometry" />
        </mxCell>
        <mxCell id="LK1dqfED8tSf46WjywbH-51" value="Threat Actor Laptop" style="verticalLabelPosition=bottom;html=1;verticalAlign=top;align=center;strokeColor=#b85450;fillColor=#CC0000;shape=mxgraph.azure.laptop;pointerEvents=1;" vertex="1" parent="1">
          <mxGeometry x="830" y="-187.5" width="90" height="55" as="geometry" />
        </mxCell>
        <mxCell id="LK1dqfED8tSf46WjywbH-55" style="edgeStyle=orthogonalEdgeStyle;rounded=0;orthogonalLoop=1;jettySize=auto;html=1;entryX=0.8;entryY=0.8;entryDx=0;entryDy=0;entryPerimeter=0;" edge="1" parent="1" source="LK1dqfED8tSf46WjywbH-5" target="LK1dqfED8tSf46WjywbH-45">
          <mxGeometry relative="1" as="geometry" />
        </mxCell>
        <mxCell id="LK1dqfED8tSf46WjywbH-61" style="rounded=0;orthogonalLoop=1;jettySize=auto;html=1;entryX=0;entryY=0.5;entryDx=0;entryDy=0;entryPerimeter=0;" edge="1" parent="1" source="LK1dqfED8tSf46WjywbH-27" target="LK1dqfED8tSf46WjywbH-3">
          <mxGeometry relative="1" as="geometry" />
        </mxCell>
        <mxCell id="LK1dqfED8tSf46WjywbH-66" value="Managed" style="edgeLabel;html=1;align=center;verticalAlign=middle;resizable=0;points=[];" vertex="1" connectable="0" parent="LK1dqfED8tSf46WjywbH-61">
          <mxGeometry x="-0.0497" y="-1" relative="1" as="geometry">
            <mxPoint as="offset" />
          </mxGeometry>
        </mxCell>
        <mxCell id="LK1dqfED8tSf46WjywbH-67" style="edgeStyle=orthogonalEdgeStyle;rounded=0;orthogonalLoop=1;jettySize=auto;html=1;entryX=1;entryY=0.5;entryDx=0;entryDy=0;entryPerimeter=0;" edge="1" parent="1" source="LK1dqfED8tSf46WjywbH-4" target="LK1dqfED8tSf46WjywbH-3">
          <mxGeometry relative="1" as="geometry" />
        </mxCell>
        <mxCell id="LK1dqfED8tSf46WjywbH-68" value="Managed" style="edgeLabel;html=1;align=center;verticalAlign=middle;resizable=0;points=[];" vertex="1" connectable="0" parent="LK1dqfED8tSf46WjywbH-67">
          <mxGeometry x="-0.0287" relative="1" as="geometry">
            <mxPoint x="1" as="offset" />
          </mxGeometry>
        </mxCell>
      </root>
    </mxGraphModel>
  </diagram>
</mxfile>
